# xmcd CD database file generated by Grip 3.2.0
# 
# Track frame offsets:
#       150
#       60713
#       100870
#       131010
#       181130
#       228230
# 
# Disc length: 3689 seconds
# 
# Revision: 1
# Processed by: cddbd v1.5.1PL2 Copyright (c) Steve Scherf et al.
# Submitted via: Grip 3.2.0
# 
DISCID=470e6706
DTITLE=George Benson - Witchcraft2
DYEAR=1900
DGENRE=Jazz
TTITLE0=Love Walked In
TTITLE1=All The Things You Are
TTITLE2=Dahlin's Delight
TTITLE3=Lil'Darlin'
TTITLE4=Oleo
TTITLE5=There Will Never Be Another You
EXTD=
EXTT0=
EXTT1=
EXTT2=
EXTT3=
EXTT4=
EXTT5=
PLAYORDER=
